<svg xmlns="http://www.w3.org/2000/svg"  viewBox="0 0 100 100" width="100px" height="100px"><path fill="#fec933" d="M42.967,21.903c-0.061-2.749-2.308-4.958-5.071-4.958c-2.73,0-4.957,2.157-5.068,4.86 c-2.179,0.569-3.787,2.551-3.787,4.908c0,2.802,2.271,5.073,5.073,5.073c1.418,0,2.699-0.582,3.62-1.519 c0.92,0.937,2.202,1.519,3.62,1.519c2.802,0,5.073-2.271,5.073-5.073C46.425,24.476,44.977,22.578,42.967,21.903z"/><path fill="#fec933" d="M73.787,30.29c1.249-2.449,0.317-5.46-2.117-6.769c-2.404-1.294-5.387-0.449-6.766,1.879 c-2.189-0.531-4.544,0.452-5.661,2.528c-1.327,2.467-0.403,5.543,2.064,6.871c1.248,0.672,2.653,0.767,3.907,0.377 c0.366,1.262,1.219,2.381,2.468,3.053c2.467,1.327,5.543,0.403,6.871-2.064C75.613,34.194,75.237,31.836,73.787,30.29z"/><path fill="#fec933" d="M51.456,13.632c-1.639-2.631-5.089-3.483-7.77-1.895c-2.649,1.57-3.568,4.942-2.122,7.628 c-1.787,1.805-2.208,4.651-0.852,6.938c1.611,2.718,5.119,3.615,7.837,2.005c1.375-0.815,2.284-2.116,2.638-3.554 c1.432,0.38,3.009,0.208,4.384-0.607c2.718-1.611,3.615-5.119,2.005-7.837C56.289,14.141,53.793,13.131,51.456,13.632z"/><path fill="#ffa340" d="M65.655,25.455c1.845-2.039,1.731-5.188-0.277-7.087c-1.984-1.876-5.083-1.839-7.022,0.048 c-1.974-1.084-4.504-0.75-6.124,0.963c-1.925,2.035-1.836,5.246,0.199,7.171c1.03,0.974,2.361,1.432,3.673,1.384 c0.024,1.314,0.556,2.617,1.585,3.591c2.035,1.925,5.246,1.836,7.171-0.199C66.399,29.701,66.652,27.326,65.655,25.455z"/><path fill="#ffa340" d="M49.917,25.488c1.249-2.449,0.317-5.46-2.117-6.769c-2.404-1.294-5.387-0.449-6.766,1.879 c-2.189-0.531-4.544,0.452-5.661,2.528c-1.327,2.467-0.403,5.543,2.064,6.871c1.248,0.672,2.653,0.767,3.907,0.377 c0.366,1.262,1.219,2.381,2.468,3.053c2.467,1.327,5.543,0.403,6.871-2.064C51.744,29.393,51.368,27.034,49.917,25.488z"/><path fill="#fec933" d="M55.833,26.36c-0.827-2.988-3.895-4.781-6.916-4.016c-2.985,0.756-4.821,3.73-4.194,6.715 c-2.224,1.225-3.434,3.837-2.781,6.413c0.776,3.062,3.887,4.916,6.949,4.141c1.55-0.392,2.789-1.383,3.536-2.663 c1.266,0.77,2.827,1.051,4.377,0.659c3.062-0.776,4.916-3.887,4.141-6.949C60.326,28.215,58.217,26.54,55.833,26.36z"/><path fill="#fec933" d="M38.96,26.646c-0.061-2.749-2.308-4.958-5.071-4.958c-2.73,0-4.957,2.157-5.068,4.86 c-2.179,0.569-3.787,2.551-3.787,4.908c0,2.519,1.836,4.609,4.242,5.005c-0.003,0.064-0.005,0.129-0.005,0.193 c0,2.156,1.748,3.904,3.904,3.904s3.904-1.748,3.904-3.904c0-0.044-0.001-0.088-0.003-0.132c0.089,0.005,0.179,0.007,0.27,0.007 c2.802,0,5.073-2.271,5.073-5.073C42.418,29.219,40.97,27.321,38.96,26.646z"/><path fill="#fb7369" d="M77.804,32.71c-0.999-1.136-2.391-1.901-3.978-1.979c-3.39-0.176-6.192,2.528-6.192,5.878 c0-3.253-2.626-5.878-5.878-5.878s-5.878,2.626-5.878,5.878c0-3.253-2.626-5.878-5.878-5.878s-5.878,2.626-5.878,5.878 c0-3.253-2.626-5.878-5.878-5.878s-5.878,2.626-5.878,5.878c0-3.331-2.782-6.015-6.153-5.878c-3.194,0.157-5.604,3.057-5.604,6.27 v1.568L28.651,86l0,0c0.005,1.416,9.561,2.563,21.349,2.563S71.052,87.483,71.349,86l7.592-45.864 c0.27-1.171,0.451-2.116,0.451-3.194C79.391,35.355,78.803,33.846,77.804,32.71z"/><path fill="#4a254b" d="M33.567,52.177c-0.258,0-0.477-0.198-0.498-0.46l-0.917-11.488c-0.022-0.275,0.184-0.516,0.459-0.538 c0.268-0.018,0.516,0.184,0.538,0.459l0.917,11.488c0.022,0.275-0.184,0.516-0.459,0.538 C33.594,52.177,33.581,52.177,33.567,52.177z"/><path fill="#4a254b" d="M36.284,86.212c-0.258,0-0.477-0.198-0.498-0.46l-1.108-13.886c-0.022-0.275,0.184-0.516,0.459-0.538 c0.277-0.022,0.516,0.184,0.538,0.459l1.108,13.886c0.022,0.275-0.184,0.516-0.459,0.538 C36.311,86.211,36.297,86.212,36.284,86.212z"/><path fill="#4a254b" d="M46.081,86.212c-0.267,0-0.488-0.211-0.499-0.48l-0.387-9.71c-0.011-0.276,0.204-0.509,0.479-0.52 c0.26-0.018,0.508,0.204,0.52,0.479l0.387,9.71c0.011,0.276-0.204,0.509-0.479,0.52C46.094,86.212,46.087,86.212,46.081,86.212z"/><path fill="#4a254b" d="M44.543,47.68c-0.267,0-0.488-0.211-0.499-0.48l-0.422-10.571c-0.011-0.276,0.204-0.509,0.479-0.52 c0.27-0.02,0.508,0.203,0.52,0.479l0.422,10.571c0.011,0.276-0.204,0.509-0.479,0.52C44.557,47.68,44.55,47.68,44.543,47.68z"/><path fill="#4a254b" d="M55.496,46.695c-0.007,0-0.014,0-0.021,0c-0.276-0.011-0.491-0.244-0.479-0.52l0.383-9.586 c0.011-0.276,0.243-0.499,0.52-0.479c0.276,0.011,0.491,0.244,0.479,0.52l-0.383,9.586C55.984,46.484,55.763,46.695,55.496,46.695 z"/><path fill="#4a254b" d="M53.919,86.212c-0.007,0-0.014,0-0.021,0c-0.276-0.011-0.491-0.244-0.479-0.52l0.414-10.365 c0.011-0.276,0.246-0.506,0.52-0.479c0.276,0.011,0.491,0.244,0.479,0.52l-0.414,10.365 C54.408,86.001,54.186,86.212,53.919,86.212z"/><path fill="#4a254b" d="M63.733,86.005c-0.013,0-0.027,0-0.04-0.001c-0.275-0.022-0.481-0.263-0.459-0.538l1.061-13.297 c0.022-0.275,0.268-0.48,0.538-0.459c0.275,0.022,0.481,0.263,0.459,0.538l-1.061,13.297 C64.21,85.807,63.991,86.005,63.733,86.005z"/><g><path fill="#4a254b" d="M66.386,52.759c-0.013,0-0.027,0-0.04-0.001c-0.275-0.022-0.481-0.263-0.459-0.538l1.088-13.637 c0.022-0.275,0.272-0.478,0.538-0.459c0.275,0.022,0.481,0.263,0.459,0.538l-1.088,13.637 C66.863,52.56,66.645,52.759,66.386,52.759z"/></g><g><circle cx="62.293" cy="60.133" r="5.879" fill="#fff"/></g><g><circle cx="62.293" cy="60.133" r="2.672" fill="#4a254b"/></g><g><path fill="#4a254b" d="M50,72.357c2.743,0,5.004-2.067,5.31-4.729c0.037-0.325-0.201-0.616-0.529-0.616c-1.848,0-7.714,0-9.562,0 c-0.327,0-0.566,0.291-0.529,0.616C44.996,70.29,47.257,72.357,50,72.357z"/></g><g><circle cx="37.707" cy="60.133" r="5.879" fill="#fff"/></g><g><circle cx="37.707" cy="60.133" r="2.672" fill="#4a254b"/></g></svg>